<svg xmlns="http://www.w3.org/2000/svg" viewBox="-1 1 463 553" fill="currentColor" role="img" aria-label="Falco">
  <path d="M311.58 108.52C322.01 90.28 333.73 73.48 349.63 53.97C352.00 51.05 351.10 51.73 346.92 56.00C332.45 70.79 315.45 94.50 305.83 113.30C300.97 122.79 291.54 145.43 291.66 147.29C291.69 147.66 295.11 140.96 299.28 132.39C303.44 123.81 308.98 113.07 311.58 108.52ZM163.92 140.42C153.28 111.50 139.66 88.61 116.99 61.55C111.73 55.27 106.90 49.81 106.26 49.42C105.00 48.64 105.78 49.71 115.41 61.88C133.96 85.35 153.34 118.20 164.34 144.81C167.19 151.69 166.88 148.46 163.92 140.42ZM228.50 174.52C225.59 171.54 217.58 166.32 217.58 167.41C217.58 167.93 230.40 177.59 231.17 177.65C231.40 177.67 230.21 176.26 228.50 174.52ZM255.49 178.35C255.27 178.18 252.71 175.88 249.81 173.23C246.05 169.80 245.04 169.21 246.30 171.14C248.15 174.02 253.50 178.63 255.00 178.65C255.49 178.66 255.71 178.52 255.49 178.35M168.99 197.58C175.04 195.41 201.28 187.89 208.81 186.17C213.45 185.12 214.32 184.70 212.05 184.62C201.57 184.23 182.64 189.21 170.12 195.63C162.84 199.37 162.53 199.91 168.99 197.58ZM368.63 232.48C372.77 212.60 365.69 189.49 350.96 174.75C344.65 168.44 333.37 161.46 331.43 162.66C330.13 163.46 330.52 193.71 331.94 202.40C332.79 207.60 333.72 210.36 334.83 210.98C339.49 213.59 352.40 224.21 358.81 230.70C362.81 234.76 366.40 238.08 366.78 238.08C367.15 238.08 367.99 235.56 368.63 232.48ZM103.38 232.59C107.46 229.03 112.86 224.64 115.38 222.83C119.88 219.60 119.99 219.39 121.64 211.03C123.59 201.16 124.85 170.87 123.31 170.87C122.77 170.87 119.73 172.77 116.56 175.11C101.47 186.22 91.77 207.70 93.22 226.80C93.82 234.61 94.65 239.06 95.51 239.06C95.76 239.06 99.30 236.15 103.38 232.59M74.24 270.64C76.84 265.32 81.05 257.94 83.60 254.24L88.22 247.50L86.08 240.60C83.05 230.88 82.43 217.11 84.56 207.27C88.71 188.08 101.66 170.11 117.97 160.90C120.78 159.32 123.08 157.73 123.08 157.38C123.04 150.66 115.41 117.28 113.92 117.31C111.54 117.37 99.66 123.07 93.23 127.22C89.46 129.67 83.42 134.17 79.81 137.23C76.21 140.29 73.05 142.59 72.80 142.34C72.55 142.09 75.00 137.93 78.24 133.08C85.04 122.91 94.69 113.56 103.97 108.14C111.41 103.79 111.28 105.64 105.34 89.52C100.42 76.16 90.04 54.70 82.08 41.43L76.03 31.33L73.71 35.10C69.54 41.87 50.26 81.45 45.31 93.42C36.11 115.64 28.60 140.07 25.16 158.87C22.95 171.00 22.21 194.79 23.68 206.46C26.84 231.58 36.02 251.61 51.38 266.90C57.52 273.01 68.42 281.39 69.20 280.60C69.37 280.44 71.63 275.96 74.23 270.64ZM407.12 270.99C438.11 242.74 446.48 195.42 430.84 136.90C427.31 123.70 419.38 101.43 412.85 86.42C408.05 75.39 391.52 41.86 387.36 34.72L384.94 30.57L382.02 34.23C374.22 44.05 359.27 71.59 351.75 90.01C346.40 103.09 346.43 102.27 351.23 104.71C358.56 108.44 366.94 114.55 372.54 120.24C377.80 125.58 388.06 139.83 388.06 141.80C388.06 142.33 385.10 140.16 381.48 136.99C370.07 126.97 353.82 117.38 345.46 115.72C342.66 115.17 342.20 115.40 341.28 117.82C339.65 122.11 333.50 146.40 333.50 148.56C333.50 149.89 334.66 150.99 337.16 152.02C346.78 156.01 360.32 168.45 366.99 179.42C379.80 200.52 382.66 223.82 374.68 242.11L372.87 246.26L379.77 256.58C383.56 262.25 388.16 270.23 390.00 274.31L393.34 281.73L397.41 278.93C399.64 277.39 404.01 273.82 407.12 270.99ZM89.43 268.28C91.52 264.80 95.14 259.32 97.48 256.10L101.73 250.26L96.56 255.77C90.29 262.46 83.86 273.45 79.63 284.73C74.42 298.61 74.87 299.78 80.42 286.79C83.28 280.09 87.33 271.76 89.43 268.28ZM284.99 405.32L288.58 404.18L284.38 397.84C279.22 390.07 276.47 382.79 274.56 371.86C271.91 356.66 272.52 354.75 281.39 350.34C285.93 348.09 295.39 345.24 298.34 345.24C299.46 345.24 300.38 344.80 300.38 344.27C300.38 343.73 299.65 343.29 298.76 343.29C295.39 343.29 278.25 336.29 275.60 333.84C272.89 331.32 272.85 331.12 273.42 323.40C274.52 308.52 279.73 294.91 287.49 286.61C291.39 282.44 291.66 281.87 290.03 281.21C289.03 280.80 285.14 280.48 281.39 280.50C272.83 280.54 266.82 283.24 259.87 290.18C254.29 295.73 247.74 308.04 245.33 317.48C239.75 339.37 242.06 367.98 250.84 385.50C259.12 402.04 271.92 409.47 284.99 405.32ZM63.35 402.77C66.02 396.94 66.28 395.87 64.70 397.30C62.73 399.08 59.59 406.46 58.47 411.97C57.89 414.79 57.91 414.80 58.95 412.46C59.55 411.12 61.53 406.76 63.35 402.77ZM210.27 374.28C208.13 373.75 201.03 373.53 194.49 373.79L182.60 374.25L184.12 371.94C188.17 365.76 199.94 362.93 208.31 366.13C212.67 367.79 216.61 371.58 216.61 374.11C216.61 375.61 215.77 375.64 210.27 374.28M140.78 405.61L144.34 404.62L140.66 399.04C133.26 387.82 127.94 368.53 128.84 356.18C129.07 353.07 146.51 345.24 153.20 345.24C154.39 345.24 155.08 344.80 154.75 344.27C154.42 343.73 153.54 343.29 152.79 343.29C149.87 343.29 134.49 337.08 131.79 334.81C129.15 332.58 128.93 331.91 128.93 325.83C128.93 313.17 135.63 294.42 142.96 286.55C145.94 283.35 146.15 282.80 144.71 282.06C138.99 279.15 130.39 280.67 123.36 285.84C118.52 289.40 111.49 299.69 108.67 307.34C101.86 325.84 101.46 354.18 107.71 374.43C112.47 389.84 119.67 400.24 128.41 404.31C133.89 406.86 135.62 407.04 140.78 405.61ZM213.23 417.00C213.86 413.66 212.40 408.56 210.81 408.56C207.76 408.56 205.52 420.46 208.08 423.03C209.67 424.62 212.40 421.43 213.23 417.00M205.32 431.84C197.56 427.93 198.03 409.96 206.07 403.20C210.00 399.90 212.90 399.34 216.48 401.19C227.73 407.01 223.09 430.33 210.27 432.39C208.67 432.65 206.44 432.40 205.33 431.84ZM183.48 417.39C183.48 414.83 182.84 412.00 182.02 410.94C180.58 409.07 180.54 409.07 179.02 410.99C177.97 412.34 177.62 414.23 177.93 417.08C178.85 425.62 183.48 425.88 183.48 417.39ZM178.05 431.97C176.93 431.52 174.86 429.77 173.45 428.09C166.51 419.85 168.40 404.19 176.74 400.73C188.47 395.88 196.77 421.61 186.31 430.41C183.21 433.02 181.46 433.35 178.05 431.97M210.27 438.89C232.51 428.96 233.08 399.87 211.25 389.87C204.81 386.92 192.21 386.73 184.83 389.47C173.19 393.79 166.19 401.96 165.25 412.31C164.11 424.86 172.00 436.16 184.84 440.36C190.92 442.34 204.26 441.57 210.27 438.89M272.86 473.57C275.18 468.14 278.09 459.00 277.63 458.55C277.48 458.40 274.44 459.43 270.87 460.85C264.80 463.26 264.42 463.59 264.98 465.95C266.04 470.38 269.33 478.70 270.01 478.68C270.37 478.67 271.65 476.37 272.86 473.57ZM164.64 472.12C166.34 467.97 167.54 464.40 167.33 464.18C167.12 463.96 165.07 463.47 162.79 463.10C160.51 462.72 157.37 462.07 155.81 461.64C153.02 460.89 152.99 460.92 153.65 464.19C154.46 468.27 159.72 479.67 160.78 479.67C161.21 479.67 162.95 476.28 164.64 472.12ZM246.80 504.50C267.71 497.80 286.01 484.08 299.80 464.77C302.26 461.31 304.28 458.27 304.28 458.01C304.28 457.11 294.30 456.36 290.05 456.95C287.25 457.33 285.77 458.02 285.77 458.93C285.77 462.13 280.52 475.74 276.97 481.75C271.23 491.48 268.29 491.71 263.58 482.81C261.96 479.75 260.07 475.33 259.38 473.00C258.69 470.66 257.56 468.54 256.86 468.27C253.18 466.86 231.46 481.26 226.26 488.56C225.12 490.16 223.98 491.27 223.72 491.01C223.01 490.30 227.09 481.62 229.84 478.02L232.29 474.80L228.59 474.66C217.49 474.24 209.43 477.01 202.94 483.50C198.38 488.06 194.48 495.93 195.48 498.54C196.19 500.41 207.21 505.76 212.71 506.92C220.88 508.63 237.62 507.44 246.80 504.50ZM209.30 514.84C194.60 510.81 184.05 504.49 173.38 493.32L165.97 485.57L164.48 488.46C163.65 490.06 162.36 491.36 161.61 491.36C158.02 491.36 148.02 474.53 144.86 463.16C143.24 457.34 143.06 457.13 135.30 451.96C130.64 448.86 125.63 444.50 123.11 441.33L118.82 435.96L115.54 437.33C113.74 438.09 110.97 439.63 109.39 440.75C107.41 442.16 106.53 442.39 106.55 441.50C106.58 439.31 110.05 432.51 112.03 430.76C117.28 426.09 128.49 424.63 134.72 427.80C139.56 430.26 139.45 431.60 134.33 432.37C131.90 432.73 129.91 433.41 129.91 433.87C129.91 434.32 132.54 437.08 135.76 440.00C145.96 449.23 158.95 454.34 172.24 454.35C178.66 454.35 188.36 451.96 188.36 450.36C188.36 449.99 186.71 449.38 184.70 449.01C174.62 447.12 165.04 440.04 160.06 430.80C157.06 425.23 156.73 423.86 156.71 416.67L156.69 408.71L153.57 410.64C146.29 415.12 144.06 415.81 136.72 415.78C127.50 415.75 121.93 413.09 114.25 405.01C104.44 394.70 98.09 380.34 94.79 361.02C88.31 323.16 100.69 285.47 123.31 274.17C128.36 271.65 130.35 271.20 136.64 271.20C149.60 271.20 159.38 277.27 167.55 290.37C176.18 304.21 180.56 322.19 180.56 343.66C180.56 355.57 178.77 371.28 176.82 376.56C176.36 377.82 175.70 379.99 175.37 381.38L174.76 383.90L179.46 381.65C190.02 376.60 203.88 376.45 215.14 381.28C221.28 383.92 229.34 391.82 232.76 398.56C235.36 403.71 235.60 405.03 235.60 414.41C235.60 426.04 234.28 429.64 227.13 437.39C222.36 442.57 218.17 445.25 210.35 448.12L204.43 450.29L208.87 452.28C228.87 461.25 258.23 457.93 282.36 443.96C286.65 441.48 292.56 437.58 295.51 435.30C301.42 430.72 309.76 422.46 309.09 421.85C308.86 421.63 306.47 422.02 303.79 422.72C301.11 423.41 298.73 423.79 298.50 423.56C297.55 422.62 304.13 417.07 309.12 414.62C313.77 412.33 315.71 411.97 323.28 411.97C331.06 411.97 332.55 412.27 336.54 414.62C341.80 417.70 344.69 422.71 343.74 427.06L343.12 429.88L338.72 426.53C336.31 424.68 333.81 423.17 333.19 423.16C332.56 423.15 331.10 422.89 329.95 422.58C328.19 422.11 327.74 422.55 327.15 425.28C325.79 431.61 320.57 446.15 317.40 452.46C312.07 463.04 302.62 476.35 293.97 485.44C281.33 498.72 266.98 507.75 249.73 513.27C238.33 516.91 219.50 517.65 209.30 514.84ZM239.99 531.87C257.55 528.72 274.33 519.14 291.75 502.31C297.57 496.68 302.33 492.57 302.33 493.17C302.33 493.77 301.50 496.46 300.48 499.14L298.62 504.02L301.21 503.38C305.96 502.22 318.33 496.66 325.50 492.46C356.43 474.38 376.59 440.81 371.01 416.68C369.05 408.20 365.90 403.47 359.53 399.43C352.80 395.17 349.08 393.98 340.32 393.29C320.90 391.78 302.04 401.17 288.63 419.02C282.48 427.21 282.53 427.19 283.19 421.22L283.77 415.87L276.73 415.83C256.34 415.73 240.44 397.34 234.07 366.47C231.32 353.16 231.80 329.80 235.09 316.99C240.35 296.48 251.29 280.72 264.92 274.01C271.20 270.91 272.19 270.72 281.37 270.77C289.34 270.82 292.02 271.24 296.00 273.03C312.52 280.50 323.80 298.01 328.03 322.76C331.00 340.06 329.48 362.17 324.30 377.31C322.93 381.28 321.93 384.65 322.08 384.79C322.22 384.93 326.58 384.79 331.77 384.49L341.21 383.92L345.09 375.05C367.30 324.32 353.19 267.93 313.29 247.93C299.80 241.16 280.94 240.06 266.39 245.19C239.61 254.63 216.46 280.73 204.88 314.55C203.38 318.94 201.98 321.71 201.68 320.89C201.39 320.08 200.21 315.26 199.06 310.17C194.44 289.71 185.14 271.68 173.80 261.18C141.56 231.34 98.88 255.27 86.48 310.13C79.71 340.08 84.86 376.15 99.30 399.93C101.25 403.13 102.68 405.87 102.49 406.01C102.30 406.16 100.51 407.25 98.52 408.45C93.00 411.77 87.22 418.92 85.58 424.47C79.42 445.20 92.80 469.39 120.75 488.03C132.77 496.05 151.86 504.53 162.29 506.48L165.94 507.16L164.53 503.16C163.26 499.58 163.89 497.59 165.48 500.15C167.00 502.62 185.60 518.41 191.51 522.25C206.34 531.88 222.29 535.05 239.99 531.87ZM210.04 545.00C201.06 542.56 192.18 538.14 184.06 532.06C178.40 527.83 176.46 526.99 167.43 524.95C153.03 521.70 138.35 516.50 123.35 509.35C99.49 497.97 87.12 488.29 77.39 473.38L72.42 465.77L70.23 470.75C69.03 473.49 67.74 475.74 67.36 475.75C66.33 475.79 61.79 467.70 59.58 461.89C58.41 458.80 57.42 453.20 57.09 447.74L56.55 438.69L54.29 440.82L52.03 442.94L51.09 440.45C50.57 439.09 49.66 434.45 49.07 430.14C46.92 414.47 51.19 397.54 59.73 387.81C62.55 384.59 62.58 384.46 61.26 380.09C56.13 363.05 55.44 332.84 59.74 313.61C61.34 306.46 61.61 303.80 60.75 303.52C60.12 303.31 56.19 300.57 52.04 297.44C30.25 281.02 15.10 256.17 8.68 226.32C5.90 213.39 4.68 191.85 5.95 177.86C9.16 142.44 21.78 104.22 47.19 52.91C64.92 17.11 69.73 9.16 73.62 9.16C81.19 9.16 111.38 36.24 131.17 60.79C144.56 77.38 154.13 92.28 164.06 111.93C174.69 132.99 182.17 154.29 186.83 176.84L187.36 179.40L193.46 178.10C196.81 177.38 202.72 176.50 206.58 176.14C213.33 175.50 213.57 175.39 212.52 173.44C211.92 172.32 209.26 169.10 206.60 166.29C199.90 159.21 200.58 157.71 210.14 158.52C218.96 159.27 226.43 162.05 233.03 167.04C235.80 169.15 238.20 170.87 238.35 170.87C238.50 170.87 238.21 168.34 237.71 165.26C236.98 160.74 237.11 158.93 238.41 155.86L240.01 152.05L248.60 160.73C256.18 168.39 267.68 176.71 270.69 176.71C271.27 176.71 272.26 173.62 272.91 169.85C273.56 166.07 276.50 155.69 279.44 146.78C289.34 116.80 306.51 86.19 327.54 61.02C344.38 40.88 371.98 15.78 383.12 10.49C389.96 7.23 391.86 9.54 408.12 40.82C433.09 88.88 449.01 133.28 453.86 168.43C456.11 184.71 455.93 207.17 453.43 221.52C450.07 240.88 442.25 260.28 431.89 274.95C426.05 283.23 413.61 295.80 406.56 300.55C402.36 303.38 401.76 304.17 402.27 306.27C406.06 322.08 408.06 342.04 407.17 355.20L406.59 363.69L411.28 368.08C417.32 373.73 421.17 380.84 421.87 387.64C422.51 393.83 422.20 393.98 415.72 390.53C413.19 389.19 411.00 388.21 410.85 388.36C410.70 388.51 411.95 391.41 413.63 394.81C416.19 399.96 416.76 402.39 417.10 409.59C417.33 414.33 417.22 419.78 416.86 421.69L416.21 425.17L412.34 420.28C410.21 417.58 408.37 415.38 408.25 415.38C408.13 415.38 408.18 419.61 408.37 424.79C408.70 433.77 407.37 443.77 405.47 446.67C404.74 447.78 404.40 447.71 403.57 446.30C403.02 445.36 401.57 443.43 400.35 442.02L398.14 439.45L398.56 445.26C399.43 457.27 393.55 483.33 387.08 471.20C385.74 468.69 384.21 466.51 383.67 466.36C383.14 466.21 381.23 468.26 379.43 470.91C374.46 478.23 357.36 494.17 347.11 501.02C330.62 512.05 312.10 520.31 292.58 525.34C285.11 527.26 280.34 529.12 276.68 531.55C268.94 536.69 260.97 540.49 251.68 543.47C240.20 547.15 220.61 547.87 210.04 545.00Z"/>
</svg>
